<?xml version="1.0" standalone="no"?>
<!DOCTYPE svg PUBLIC "-//W3C//DTD SVG 20010904//EN"
 "http://www.w3.org/TR/2001/REC-SVG-20010904/DTD/svg10.dtd">
<svg version="1.0" xmlns="http://www.w3.org/2000/svg"
 width="1300.000000pt" height="867.000000pt" viewBox="0 0 1300.000000 867.000000"
 preserveAspectRatio="xMidYMid meet">

<g transform="translate(0.000000,867.000000) scale(0.100000,-0.100000)"
fill="#000000" stroke="none">
<path d="M0 6396 c0 -2244 0 -2274 20 -2317 28 -62 28 -232 0 -321 -19 -62
-20 -95 -20 -1910 l0 -1848 6500 0 6500 0 0 4335 0 4335 -6500 0 -6500 0 0
-2274z m1010 804 c20 -6 21 -8 5 -8 -11 0 -31 4 -45 8 -20 6 -21 8 -5 8 11 0
31 -4 45 -8z m0 -20 l25 -8 -25 0 c-14 0 -34 3 -45 8 l-20 9 20 -1 c11 0 31
-4 45 -8z m-583 -371 c-4 -144 -9 -264 -12 -267 -7 -7 -5 270 2 421 11 199 16
109 10 -154z m233 -319 c-5 -197 -12 -296 -19 -298 -6 -2 -9 -9 -5 -15 3 -7
-2 -3 -10 7 -14 17 -16 54 -16 240 0 214 8 292 28 305 6 3 14 19 17 34 4 15 9
27 10 25 2 -2 0 -136 -5 -298z m446 -17 c16 -16 16 -18 2 -21 -9 -2 -40 -38
-69 -80 -28 -42 -57 -81 -63 -87 -6 -5 -16 -21 -23 -35 -6 -14 -46 -75 -89
-135 -44 -61 -86 -122 -95 -135 -9 -14 -20 -22 -24 -18 -6 6 185 303 204 318
14 11 126 193 124 201 -5 15 15 10 33 -8z m53 -275 l1 -138 -25 0 -25 0 2 163
c2 123 6 161 16 160 6 -2 13 5 13 15 1 9 5 -1 10 -23 4 -22 8 -102 8 -177z
m-512 -44 c-3 -3 -12 -4 -19 -1 -8 3 -5 6 6 6 11 1 17 -2 13 -5z m-284 -49
c-3 -8 -9 -15 -14 -15 -10 0 -12 24 -3 33 11 11 24 -3 17 -18z m284 -11 c-3
-3 -12 -4 -19 -1 -8 3 -5 6 6 6 11 1 17 -2 13 -5z m8 -64 c3 -5 -1 -10 -9 -10
-8 0 -18 5 -21 10 -3 6 1 10 9 10 8 0 18 -4 21 -10z m0 -60 c3 -5 -3 -10 -15
-10 -12 0 -18 5 -15 10 3 6 10 10 15 10 5 0 12 -4 15 -10z m-310 -20 c22 -8
26 -15 23 -42 -2 -27 -7 -33 -25 -32 -13 0 -23 -3 -23 -8 0 -4 -4 -8 -10 -8
-5 0 -10 23 -10 50 0 53 3 56 45 40z m-103 -145 l-9 -70 -2 65 c-1 68 11 135
17 95 1 -11 -1 -51 -6 -90z m158 63 c0 -10 -4 -18 -10 -18 -5 0 -10 15 -10 33
0 24 3 28 10 17 5 -8 10 -23 10 -32z m253 35 c-7 -2 -19 -2 -25 0 -7 3 -2 5
12 5 14 0 19 -2 13 -5z m7 -63 c0 -5 -7 -10 -15 -10 -8 0 -15 5 -15 10 0 6 7
10 15 10 8 0 15 -4 15 -10z m-5 -60 c3 -5 -1 -10 -9 -10 -9 0 -16 5 -16 10 0
6 4 10 9 10 6 0 13 -4 16 -10z m2 -66 c-3 -3 -12 -4 -19 -1 -8 3 -5 6 6 6 11
1 17 -2 13 -5z m-424 -91 c-8 -91 -13 -92 -13 -5 0 40 4 72 10 72 5 0 7 -27 3
-67z m427 27 c0 -5 -4 -10 -9 -10 -6 0 -13 5 -16 10 -3 6 1 10 9 10 9 0 16 -4
16 -10z m0 -60 c0 -5 -7 -10 -15 -10 -8 0 -15 5 -15 10 0 6 7 10 15 10 8 0 15
-4 15 -10z m-443 -102 c-2 -13 -4 -5 -4 17 -1 22 1 32 4 23 2 -10 2 -28 0 -40z
m443 42 c12 -8 11 -10 -7 -10 -13 0 -23 5 -23 10 0 13 11 13 30 0z m5 -70 c-3
-5 -12 -7 -20 -3 -21 7 -19 13 6 13 11 0 18 -4 14 -10z m0 -60 c3 -5 -1 -10
-9 -10 -9 0 -16 5 -16 10 0 6 4 10 9 10 6 0 13 -4 16 -10z m2 -66 c-3 -3 -12
-4 -19 -1 -8 3 -5 6 6 6 11 1 17 -2 13 -5z m0 -60 c-3 -3 -12 -4 -19 -1 -8 3
-5 6 6 6 11 1 17 -2 13 -5z m-471 -172 c-11 -10 -12 3 -6 68 l5 65 3 -64 c2
-35 1 -66 -2 -69z m474 108 c0 -5 -7 -10 -15 -10 -8 0 -15 5 -15 10 0 6 7 10
15 10 8 0 15 -4 15 -10z m5525 -40 c791 -22 2222 -115 2705 -176 346 -43 735
-135 1120 -263 541 -181 749 -276 1075 -494 157 -104 235 -180 235 -229 0 -34
-29 -18 -107 60 -75 75 -87 82 -303 190 -199 98 -664 303 -687 302 -4 -1 46
-29 112 -63 92 -48 121 -67 123 -84 2 -12 13 -25 25 -28 64 -19 240 -91 296
-122 68 -38 105 -70 136 -118 32 -50 29 -57 -18 -50 -42 7 -319 61 -367 72
-14 3 -32 5 -40 6 -8 0 -21 4 -28 10 -7 5 -15 8 -17 5 -3 -2 35 -44 84 -91 49
-48 87 -87 83 -87 -3 0 -49 43 -103 95 -53 52 -102 95 -110 95 -8 0 38 -51
102 -113 64 -61 102 -101 85 -87 -17 14 -70 63 -119 110 -95 91 -117 108 -117
89 0 -8 -7 -6 -18 4 -10 10 -23 17 -28 17 -5 0 56 -66 136 -147 l145 -147
-139 132 c-76 73 -142 130 -145 126 -3 -3 37 -47 89 -98 52 -51 108 -108 125
-127 16 -19 -23 17 -88 80 -64 63 -120 111 -124 108 -3 -4 63 -75 148 -158
l154 -151 -150 141 c-82 77 -151 137 -153 133 -1 -5 62 -73 141 -153 91 -92
106 -110 42 -49 -55 52 -118 112 -141 133 l-41 38 -1 -30 c0 -25 9 -39 48 -73
27 -24 75 -72 106 -108 42 -47 28 -36 -50 40 -146 142 -131 109 19 -43 l120
-120 -116 106 c-108 99 -117 105 -117 79 0 -21 22 -50 101 -132 l102 -105
-102 100 c-57 55 -103 93 -103 85 0 -8 39 -55 88 -105 l87 -90 -87 85 c-90 86
-121 99 -47 19 95 -104 100 -110 33 -46 -69 67 -72 68 -72 40 0 -19 12 -41 36
-68 33 -36 34 -37 5 -11 -40 36 -56 27 -22 -12 13 -15 17 -21 9 -14 -24 21
-27 14 -22 -60 3 -47 10 -80 21 -93 15 -19 15 -19 -2 -5 -18 13 -18 6 -11
-229 l7 -242 -39 3 -39 3 -7 220 c-13 437 -33 587 -93 705 -30 59 -120 158
-181 198 -60 40 -224 112 -304 133 -36 9 -65 20 -65 25 0 13 167 52 250 59 39
4 150 7 247 8 124 1 181 6 189 14 21 21 -18 28 -156 28 -131 0 -236 -15 -398
-56 -43 -11 -82 -17 -88 -14 -16 10 -141 43 -204 54 -49 8 -334 60 -410 75
-80 15 -95 19 -95 28 0 7 -5 6 -14 -1 -19 -16 -76 5 -76 29 0 11 -4 22 -10 25
-5 3 -10 1 -10 -4 0 -6 -7 -11 -15 -11 -22 0 -19 10 13 36 15 13 21 24 15 24
-7 0 -13 7 -13 15 0 9 -6 12 -15 9 -8 -4 -12 -10 -9 -15 6 -11 -17 -69 -28
-69 -4 0 -5 -7 -1 -16 5 -12 -1 -15 -28 -12 -28 2 -33 7 -31 23 1 12 -6 30
-17 42 -11 11 -17 24 -14 27 4 3 -1 6 -10 6 -13 0 -14 6 -7 31 8 26 7 30 -7
25 -13 -5 -14 -4 -3 9 9 11 9 15 1 15 -7 0 -10 4 -7 9 3 4 1 28 -4 52 -7 32
-8 5 -5 -103 2 -81 0 -150 -5 -153 -12 -8 -44 66 -41 97 2 20 -3 28 -20 33
-17 6 -19 9 -8 16 10 6 11 11 3 17 -6 4 -14 14 -17 22 -3 9 -6 2 -7 -15 -1
-26 -3 -27 -10 -10 -5 12 -3 26 5 35 6 8 15 23 18 33 5 14 2 16 -21 12 -16 -3
-21 -2 -12 2 28 15 23 123 -5 123 -8 0 -15 5 -15 10 0 14 13 13 29 -2 11 -11
14 -10 18 1 5 11 7 11 14 0 7 -11 9 -11 9 -1 0 7 -12 24 -27 38 -17 14 -21 22
-10 18 9 -3 17 -1 17 5 0 6 12 11 27 11 129 0 -340 48 -727 75 -356 24 -765
45 -886 45 -133 0 -214 -21 -298 -78 -30 -20 -152 -130 -270 -244 l-214 -208
-136 0 c-75 0 -136 -3 -136 -7 0 -5 60 -7 132 -5 l133 3 -120 -121 -120 -120
97 -97 97 -97 492 -7 c270 -4 493 -9 495 -12 10 -9 -171 -114 -205 -119 -45
-7 -1071 9 -1079 16 -3 3 9 111 26 238 17 128 34 258 37 288 11 101 14 108 45
115 45 10 80 58 80 110 0 86 -39 125 -124 125 -36 0 -52 -6 -78 -29 -30 -27
-33 -35 -34 -88 0 -33 -4 -65 -8 -71 -4 -7 -1 -12 8 -12 22 0 21 -3 -16 -60
-25 -37 -39 -50 -58 -50 -19 0 -22 -3 -11 -9 12 -8 10 -17 -15 -53 -16 -24
-35 -47 -42 -51 -7 -4 -24 -31 -38 -59 -19 -38 -28 -48 -35 -37 -15 23 -11 69
6 69 8 0 15 5 15 10 0 6 -18 10 -40 10 -22 0 -40 -4 -40 -10 0 -5 7 -10 16
-10 13 0 15 -8 12 -40 -3 -31 0 -41 13 -45 15 -5 14 -11 -9 -53 -14 -26 -30
-50 -35 -53 -5 -4 -7 -13 -5 -20 5 -14 69 49 111 108 24 35 49 51 55 34 2 -6
10 -11 18 -11 11 0 13 9 8 39 -6 36 -2 46 37 100 30 42 53 63 72 67 17 4 24
10 17 14 -7 5 -5 14 9 31 11 13 20 21 21 18 0 -3 -18 -138 -40 -300 -22 -162
-40 -299 -40 -306 0 -9 -134 -12 -532 -16 -472 -3 -554 -6 -713 -26 -269 -33
-542 -76 -837 -131 -762 -145 -832 -154 -1473 -195 -267 -17 -1310 -22 -1319
-6 -3 5 1 14 9 21 15 12 15 55 1 78 -5 9 17 12 91 13 1246 8 1750 41 2335 155
467 90 607 116 792 144 l188 29 97 93 c53 51 304 295 559 542 254 248 472 456
485 463 27 15 250 16 722 3z m-5545 -16 c0 -8 5 -12 10 -9 6 4 11 -40 12 -122
1 -70 2 -145 3 -165 0 -21 -2 -38 -6 -38 -4 0 -14 -3 -23 -6 -14 -5 -16 14
-16 175 0 114 4 181 10 181 6 0 10 -7 10 -16z m-463 -116 c-2 -13 -4 -5 -4 17
-1 22 1 32 4 23 2 -10 2 -28 0 -40z m0 -50 c-3 -8 -6 -5 -6 6 -1 11 2 17 5 13
3 -3 4 -12 1 -19z m4523 -77 c0 -39 -5 -72 -12 -79 -15 -15 -84 -16 -93 -2 -4
6 10 10 34 10 22 0 43 5 46 10 4 6 -7 10 -26 10 -47 0 -69 24 -69 77 0 56 18
56 22 1 3 -42 4 -43 41 -46 l38 -3 -7 35 c-7 40 1 70 16 61 5 -3 10 -37 10
-74z m166 37 c0 -21 3 -41 7 -45 11 -11 8 -48 -5 -61 -7 -7 -33 -12 -59 -12
-40 0 -49 4 -54 21 -9 26 11 50 21 26 4 -11 17 -17 35 -17 22 0 29 5 29 20 0
13 -7 20 -20 20 -11 0 -20 7 -20 15 0 8 9 15 20 15 11 0 20 7 20 15 0 10 -10
15 -29 15 -16 0 -31 -6 -35 -15 -9 -24 -26 -18 -26 9 0 30 12 35 70 33 45 -2
45 -2 46 -39z m164 23 c16 -30 12 -107 -6 -122 -8 -7 -39 -14 -68 -17 -49 -4
-54 -2 -59 19 -4 13 -7 50 -7 82 l0 57 65 0 c53 0 66 -3 75 -19z m-596 -78 c3
-41 2 -73 -3 -73 -13 0 -21 38 -21 105 0 80 16 59 24 -32z m126 77 c0 -5 -9
-10 -20 -10 -18 0 -20 -7 -20 -70 0 -40 -4 -70 -10 -70 -6 0 -10 30 -10 70 0
63 -2 70 -20 70 -11 0 -20 5 -20 10 0 6 23 10 50 10 28 0 50 -4 50 -10z m3918
-7 c-2 -9 -9 -18 -16 -19 -7 -1 -8 0 -2 3 8 3 7 9 -1 19 -9 11 -8 14 6 14 10
0 15 -6 13 -17z m-8311 -40 c-3 -10 -5 -2 -5 17 0 19 2 27 5 18 2 -10 2 -26 0
-35z m4194 31 c17 -21 26 -144 10 -144 -6 0 -11 18 -11 44 0 73 -13 96 -56 96
l-36 0 4 -70 c3 -66 -4 -92 -16 -52 -4 16 -10 117 -7 135 2 15 98 7 112 -9z
m-3219 -56 l3 -63 470 1 c598 1 965 24 1429 90 l178 25 127 -78 c69 -42 171
-101 226 -129 60 -32 94 -55 85 -58 -20 -7 -411 -69 -630 -100 -532 -76 -998
-106 -1620 -105 l-325 0 -73 43 c-40 23 -69 46 -65 49 7 8 9 15 17 77 2 19 9
59 15 89 6 30 10 55 9 57 -2 1 -19 9 -38 17 -35 15 -35 15 53 16 l87 1 0 58
c0 63 4 72 31 72 15 0 19 -10 21 -62z m3062 31 c32 -38 33 -70 4 -103 -35 -40
-78 -43 -116 -11 -25 21 -32 35 -32 61 0 79 93 114 144 53z m2866 -4 c0 -34 1
-35 39 -35 36 0 40 3 43 28 2 21 9 28 31 30 l27 3 0 -68 c0 -95 -6 -111 -36
-105 -18 3 -24 11 -24 32 0 29 -15 40 -56 40 -18 0 -24 -5 -24 -22 0 -33 -14
-51 -36 -46 -15 3 -20 14 -22 58 -5 87 4 120 33 120 22 0 25 -5 25 -35z m220
-40 c0 -54 3 -66 20 -75 38 -20 59 3 62 68 3 53 5 57 28 57 24 0 25 -2 22 -60
-4 -80 -8 -90 -38 -103 -77 -36 -154 8 -154 87 0 63 11 91 36 91 23 0 24 -3
24 -65z m-3260 46 c0 -5 -14 -11 -32 -15 -44 -9 -58 -23 -58 -60 0 -44 16 -56
74 -56 35 0 47 -3 40 -10 -19 -19 -91 -16 -113 4 -41 37 -28 109 23 132 36 15
66 18 66 5z m3525 -55 l23 -51 23 49 24 49 124 -7 c86 -4 131 -10 148 -21 25
-17 30 -44 11 -63 -8 -8 -8 -15 1 -26 16 -19 6 -53 -19 -66 -20 -11 -161 0
-160 13 0 4 0 32 0 62 0 51 2 55 23 55 13 0 27 -4 33 -9 14 -14 67 -18 71 -5
4 11 -61 24 -123 24 l-34 0 0 -63 c0 -71 -3 -77 -31 -70 -15 4 -19 14 -19 52
l0 46 -31 -47 c-17 -27 -39 -48 -48 -48 -11 0 -26 19 -41 53 l-24 52 -4 -47
c-3 -46 -5 -48 -32 -48 l-30 0 6 78 c7 102 6 99 49 94 34 -4 39 -9 60 -56z
m-3677 12 c23 -25 45 -137 23 -124 -6 4 -11 17 -11 30 0 45 -21 86 -48 93 -65
16 -112 -67 -58 -102 17 -12 35 -15 56 -10 35 8 42 -9 8 -19 -41 -10 -58 -6
-83 19 -35 34 -34 86 1 114 36 28 85 27 112 -1z m4230 -16 c4 -23 1 -24 -52
-20 -40 2 -56 -1 -56 -9 0 -8 15 -13 41 -13 33 0 40 -3 37 -17 -2 -13 -15 -19
-46 -21 -61 -5 -52 -19 19 -27 48 -6 59 -10 57 -24 -3 -13 -17 -16 -85 -16
-45 1 -85 4 -89 7 -3 4 -3 43 1 88 l7 81 82 -3 c76 -3 81 -4 84 -26z m82 -52
c0 -38 3 -69 8 -69 4 1 26 1 50 0 38 -1 42 -3 42 -27 0 -25 -2 -26 -37 -20
-21 3 -57 6 -80 6 l-43 0 0 90 0 90 30 0 30 0 0 -70z m-8000 -34 c0 -8 -51
-13 -56 -5 -3 5 9 9 25 9 17 0 31 -2 31 -4z m5800 -31 c0 -13 -4 -14 -22 -4
-34 17 -34 19 -5 19 18 0 27 -5 27 -15z m-60 -5 c0 -5 -4 -10 -10 -10 -5 0
-10 5 -10 10 0 6 5 10 10 10 6 0 10 -4 10 -10z m1760 -70 c0 -5 -9 -10 -20
-10 -21 0 -27 -15 -10 -25 6 -3 10 -1 10 4 0 6 5 11 10 11 6 0 10 -7 10 -15 0
-8 -9 -15 -20 -15 -23 0 -35 22 -26 45 6 17 46 21 46 5z m200 -10 c0 -5 -4
-10 -10 -10 -5 0 -10 -9 -10 -20 0 -11 -5 -20 -11 -20 -6 0 -8 9 -4 20 4 11 2
20 -4 20 -6 0 -11 5 -11 10 0 6 11 10 25 10 14 0 25 -4 25 -10z m-93 -9 c15
-1 20 -6 16 -20 -5 -20 -58 -27 -69 -9 -4 6 -9 5 -15 -3 -6 -11 -11 -11 -20
-2 -21 21 -3 41 33 38 18 -2 43 -3 55 -4z m199 -5 c8 -8 14 -23 14 -33 0 -15
-2 -16 -10 -3 -6 10 -10 11 -10 3 0 -16 -46 -17 -56 -2 -4 8 -9 7 -14 -2 -7
-10 -11 -10 -24 0 -25 21 -2 41 40 34 22 -4 34 -2 34 6 0 15 9 14 26 -3z m134
-8 c0 -9 18 -14 53 -15 101 -4 93 0 75 -38 -12 -26 -30 -35 -27 -12 3 28 -3
40 -10 17 -7 -26 -35 -35 -37 -12 -3 24 -4 26 -15 15 -6 -6 -22 -8 -38 -4 -14
4 -41 6 -58 5 -20 -1 -33 3 -33 9 0 7 -5 6 -10 -3 -8 -12 -10 -9 -10 13 0 27
22 38 35 17 5 -8 11 -8 19 -1 9 7 16 7 24 -1 9 -9 12 -8 12 5 0 9 5 17 10 17
6 0 10 -6 10 -12z m425 -68 c3 -5 1 -10 -4 -10 -6 0 -11 5 -11 10 0 6 2 10 4
10 3 0 8 -4 11 -10z m-4975 -245 l0 -115 -121 0 -122 0 6 83 c4 45 7 97 7 115
l0 32 115 0 115 0 0 -115z m528 105 c1 0 2 -52 2 -115 l0 -115 -250 0 c-160 0
-250 4 -250 10 0 6 88 10 243 10 l242 0 0 98 0 97 -242 3 c-166 2 -243 6 -243
13 0 8 73 9 248 5 136 -3 248 -5 250 -6z m2512 -64 c0 -13 -7 -29 -15 -36 -13
-11 -15 -8 -15 14 0 19 -5 26 -20 26 -11 0 -20 5 -20 10 0 6 16 10 35 10 30 0
35 -3 35 -24z m-252 -13 l9 -28 14 28 c10 22 19 27 38 25 14 -2 26 -9 25 -15
-1 -7 -2 -33 -2 -58 -2 -38 -5 -45 -22 -45 -17 0 -19 5 -14 25 3 14 3 25 0 25
-4 0 -11 -11 -16 -25 -13 -33 -36 -32 -48 3 l-10 27 -1 -27 c-1 -21 -6 -28
-21 -28 -18 0 -20 7 -20 60 0 60 0 60 29 60 23 0 31 -6 39 -27z m-2738 1 c0
-8 5 -12 10 -9 6 3 10 -3 10 -14 0 -12 5 -21 10 -21 6 0 10 10 10 21 0 17 3
19 13 10 10 -7 17 -7 24 0 17 17 33 1 32 -29 -2 -24 -2 -24 -6 -4 -5 27 -23
29 -23 2 0 -11 -4 -20 -10 -20 -5 0 -10 6 -10 13 0 9 -2 9 -8 0 -4 -7 -22 -12
-40 -10 -30 2 -32 4 -32 40 0 20 5 37 10 37 6 0 10 -7 10 -16z m2880 -24 l0
-40 42 0 c39 0 40 -1 25 -18 -12 -13 -27 -16 -61 -14 l-46 4 0 42 c0 39 13 66
32 66 4 0 8 -18 8 -40z m218 28 c17 -17 15 -74 -4 -93 -16 -16 -82 -18 -76 -2
1 4 2 30 2 57 0 50 0 50 33 50 18 0 38 -5 45 -12z m45 -18 c-4 -16 0 -20 21
-20 14 0 26 -4 26 -10 0 -5 -11 -10 -25 -10 -36 0 -31 -25 8 -38 l32 -10 -42
-1 -43 -1 0 53 c0 30 3 57 6 60 12 12 22 -3 17 -23z m-2716 -12 c-3 -7 -5 -2
-5 12 0 14 2 19 5 13 2 -7 2 -19 0 -25z m20 -20 c-2 -13 -4 -5 -4 17 -1 22 1
32 4 23 2 -10 2 -28 0 -40z m4962 31 c46 -7 85 -18 88 -25 4 -12 -24 -215 -32
-222 -5 -6 -209 29 -217 37 -6 5 16 185 28 220 2 8 13 11 27 8 12 -3 60 -11
106 -18z m-5241 -2 c18 -22 3 -67 -23 -67 -18 0 -29 49 -14 66 14 17 24 18 37
1z m61 -26 c-1 -20 -2 -22 -6 -6 -8 33 -23 42 -24 15 0 -14 -3 -19 -6 -12 -8
21 5 42 22 36 9 -4 15 -17 14 -33z m111 29 c0 -5 -2 -10 -4 -10 -3 0 -8 5 -11
10 -3 6 -1 10 4 10 6 0 11 -4 11 -10z m-80 -25 c0 -14 -2 -25 -4 -25 -2 0 -6
11 -8 25 -3 14 -1 25 3 25 5 0 9 -11 9 -25z m25 15 c-3 -5 -2 -10 4 -10 5 0
12 6 14 13 3 7 6 5 6 -5 1 -11 -6 -18 -16 -18 -15 0 -16 -2 -3 -10 13 -8 12
-10 -2 -10 -13 0 -18 8 -18 25 0 14 5 25 11 25 5 0 7 -4 4 -10z m115 -7 c0
-10 -4 -14 -8 -8 -4 6 -11 13 -16 18 -5 4 -2 7 7 7 10 0 17 -8 17 -17z m3888
-124 c38 -33 41 -39 17 -26 -34 17 -115 100 -135 138 -7 13 6 3 29 -23 23 -26
63 -66 89 -89z m-3911 106 c0 -8 -4 -15 -9 -15 -4 0 -8 7 -8 15 0 8 4 15 8 15
5 0 9 -7 9 -15z m-32 -13 c-3 -3 -11 0 -18 7 -9 10 -8 11 6 5 10 -3 15 -9 12
-12z m4021 -15 c6 -20 7 -20 24 2 21 29 55 25 55 -6 0 -12 3 -25 8 -29 4 -4 7
7 7 25 l0 32 63 -7 c34 -4 68 -11 75 -17 8 -6 12 -6 12 3 0 8 14 10 48 6 26
-3 70 -6 97 -7 28 -1 59 -4 70 -7 l20 -5 -20 -8 c-17 -6 -17 -8 -2 -8 9 -1 17
-6 17 -12 0 -6 -7 -9 -15 -5 -8 3 -15 1 -15 -4 0 -5 8 -11 18 -13 9 -3 2 -5
-15 -6 -30 -1 -33 2 -33 29 0 38 -18 40 -22 3 -2 -16 -7 -28 -13 -28 -5 0 -11
12 -13 28 -2 17 -9 27 -20 27 -12 0 -13 -3 -4 -12 26 -26 13 -38 -42 -38 -30
0 -58 5 -61 10 -4 6 -11 7 -17 4 -21 -13 -152 -4 -168 12 -12 12 -13 16 -1 23
7 5 9 11 4 14 -6 4 -16 -5 -23 -18 -7 -14 -21 -25 -30 -25 -15 0 -40 37 -40
60 0 17 29 -2 36 -23z m-1096 -28 c0 -5 -6 -9 -14 -9 -23 0 -46 11 -41 20 6
10 55 0 55 -11z m1600 -9 c0 -16 -4 -30 -10 -30 -5 0 -10 14 -10 30 0 17 5 30
10 30 6 0 10 -13 10 -30z m43 10 c14 -21 14 -21 22 2 7 21 8 20 12 -10 6 -43
-2 -50 -28 -27 -17 17 -22 17 -29 5 -7 -11 -10 -6 -10 18 0 37 12 41 33 12z
m648 -3 c25 4 29 1 29 -19 1 -20 2 -21 13 -7 9 12 23 15 52 12 22 -2 40 -5 41
-6 1 -1 -3 -13 -9 -27 l-10 -25 -7 25 c-5 14 -8 18 -9 9 -2 -25 -72 -20 -81 5
-6 17 -7 17 -13 4 -8 -21 -44 -12 -50 12 -5 19 5 39 11 22 2 -6 16 -8 33 -5z
m170 -31 c5 3 9 -1 9 -9 0 -8 -9 -17 -20 -20 -14 -4 -20 0 -20 12 0 21 13 37
18 22 2 -6 8 -9 13 -5z m-7391 -41 c0 -17 -16 -20 -25 -5 -7 11 -25 4 -25 -8
0 -4 14 -13 30 -19 35 -13 41 -47 12 -62 -24 -13 -62 -3 -62 15 0 17 12 18 27
3 11 -11 33 -5 33 9 0 4 -13 13 -30 19 -28 11 -40 39 -23 56 13 14 63 7 63 -8z
m123 0 c7 -17 -9 -30 -18 -15 -10 16 -52 12 -59 -6 -16 -41 23 -77 54 -49 19
18 35 8 19 -12 -18 -20 -76 -17 -89 6 -14 28 -12 52 7 73 20 22 78 24 86 3z
m59 3 c-19 -19 -14 -28 13 -28 27 0 32 9 13 28 -9 9 -7 12 13 12 23 0 24 -3
24 -55 0 -51 -2 -55 -24 -55 -19 0 -21 3 -11 15 13 16 6 35 -15 35 -18 0 -26
-25 -12 -39 8 -8 5 -11 -13 -11 -24 0 -25 3 -25 55 0 52 1 55 25 55 19 0 21
-3 12 -12z m162 -3 c-4 -8 1 -33 10 -55 15 -39 15 -40 -4 -40 -13 0 -18 5 -14
15 5 11 -1 15 -20 15 -18 0 -24 -4 -20 -15 4 -10 0 -15 -14 -15 -20 0 -20 1
-5 31 9 17 16 42 16 55 0 20 5 24 28 24 21 0 27 -4 23 -15z m136 7 c0 -16 -13
-22 -26 -11 -14 11 -34 4 -34 -12 0 -5 7 -9 15 -9 8 0 15 -4 15 -10 0 -5 -7
-10 -15 -10 -17 0 -20 -26 -4 -36 6 -3 16 -1 22 5 15 15 27 14 27 -4 0 -11
-11 -15 -42 -15 l-43 0 0 55 0 55 43 0 c23 0 42 -4 42 -8z m110 -7 c0 -18 -12
-19 -27 -4 -12 12 -33 4 -33 -12 0 -5 7 -9 15 -9 8 0 15 -4 15 -10 0 -5 -7
-10 -16 -10 -12 0 -15 -7 -12 -25 4 -18 1 -25 -11 -25 -13 0 -16 11 -16 55 l0
55 43 0 c31 0 42 -4 42 -15z m100 0 c0 -18 -12 -19 -27 -4 -11 11 -33 5 -33
-10 0 -5 10 -12 23 -16 l22 -8 -22 -4 c-25 -5 -30 -22 -11 -41 9 -9 7 -12 -12
-12 -24 0 -25 3 -25 55 l0 55 43 0 c31 0 42 -4 42 -15z m53 -20 c-8 -47 2 -71
22 -55 17 14 31 8 20 -9 -3 -6 -21 -11 -38 -11 l-32 0 0 55 c0 45 3 55 17 55
14 0 16 -7 11 -35z m147 20 c0 -11 -8 -13 -30 -8 -19 3 -30 1 -30 -6 0 -6 7
-11 15 -11 8 0 15 -4 15 -10 0 -5 -7 -10 -15 -10 -8 0 -15 -9 -15 -20 0 -21
24 -28 35 -10 9 15 25 12 25 -5 0 -11 -11 -15 -42 -15 l-43 0 0 55 0 55 43 0
c30 0 42 -4 42 -15z m96 -26 c1 -21 4 -44 7 -53 4 -10 1 -16 -8 -16 -7 0 -15
10 -17 22 -2 12 -9 23 -17 26 -10 3 -13 -2 -9 -22 4 -21 2 -26 -16 -26 -19 0
-21 6 -21 55 l0 56 40 -3 c39 -3 40 -4 41 -39z m6224 21 c0 -11 5 -20 10 -20
6 0 10 7 10 15 0 9 9 15 25 15 14 0 25 -4 25 -8 0 -5 14 -7 30 -4 19 3 30 0
30 -8 0 -7 -8 -9 -20 -5 -14 5 -20 2 -20 -9 0 -17 -36 -21 -102 -10 -32 6 -38
11 -38 30 0 19 5 24 25 24 18 0 25 -5 25 -20z m1313 -122 c115 -114 118 -118
27 -33 -157 147 -175 165 -167 165 5 0 68 -59 140 -132z m22 92 c10 -11 16
-20 13 -20 -3 0 -13 9 -23 20 -10 11 -16 20 -13 20 3 0 13 -9 23 -20z m96 -27
c13 -16 12 -17 -3 -4 -10 7 -18 15 -18 17 0 8 8 3 21 -13z m-2653 -29 c-9 -9
-21 -13 -27 -10 -20 13 -11 26 16 26 25 0 26 -1 11 -16z m2647 -34 c10 -11 16
-20 13 -20 -3 0 -13 9 -23 20 -10 11 -16 20 -13 20 3 0 13 -9 23 -20z m-2325
-15 c353 -24 603 -45 750 -63 l135 -17 7 -60 c3 -33 3 -63 0 -66 -4 -4 -97 4
-207 17 -110 12 -310 30 -445 38 -135 9 -265 18 -290 21 -25 3 -139 10 -254
16 -116 5 -214 12 -218 15 -5 3 31 30 79 59 104 64 97 63 443 40z m2160 -120
c69 -69 122 -125 120 -125 -3 0 -61 56 -130 125 -69 69 -122 125 -120 125 3 0
61 -56 130 -125z m-9407 54 l32 -2 -35 -6 c-26 -4 -35 -11 -35 -26 0 -15 9
-21 35 -26 26 -4 31 -7 18 -13 -9 -4 -27 -6 -40 -4 -20 3 -23 9 -26 58 -1 42
0 51 8 38 7 -11 24 -19 43 -19z m535 -21 l-3 -53 -60 0 -60 0 0 40 0 40 53 3
c28 2 52 7 52 13 0 5 5 9 11 9 6 0 9 -21 7 -52z m42 42 c0 -5 14 -10 30 -10
17 0 30 -4 30 -10 0 -5 -14 -10 -31 -10 -26 0 -30 -3 -27 -22 2 -16 10 -23 25
-23 32 0 29 -19 -2 -23 -39 -5 -55 14 -55 64 0 32 4 44 15 44 8 0 15 -4 15
-10z m-342 -19 c8 -5 12 -22 10 -42 -3 -33 -4 -34 -53 -37 -56 -3 -81 8 -72
32 5 11 19 16 52 16 25 0 45 5 45 10 0 6 -21 10 -46 10 -27 0 -43 4 -39 10 7
12 85 13 103 1z m150 -39 c2 -29 0 -42 -7 -37 -6 3 -11 20 -11 36 0 29 -1 30
-42 27 -40 -3 -43 -5 -46 -36 -2 -18 -8 -30 -13 -27 -11 7 -12 68 -2 79 4 4
32 6 63 4 l55 -3 3 -43z m8511 44 c-11 -9 -179 -15 -179 -6 0 6 37 10 92 10
50 0 89 -2 87 -4z m-8959 -10 c0 -2 -15 -6 -34 -8 -19 -2 -32 0 -30 4 5 8 64
12 64 4z m153 -3 c-30 -4 -33 -7 -33 -39 0 -19 -4 -34 -10 -34 -11 0 -14 63
-3 73 3 4 22 6 42 5 l36 -1 -32 -4z m9312 -153 c60 -60 107 -110 105 -110 -3
0 -55 50 -115 110 -60 61 -107 110 -105 110 3 0 55 -49 115 -110z m150 80 c10
-11 16 -20 13 -20 -3 0 -13 9 -23 20 -10 11 -16 20 -13 20 3 0 13 -9 23 -20z
m-4830 -90 c4 -6 -13 -10 -44 -10 -44 0 -51 -3 -51 -20 0 -16 7 -20 33 -20 17
0 39 -5 47 -10 11 -7 2 -10 -32 -10 -41 0 -48 -3 -48 -19 0 -27 4 -28 94 -32
92 -5 108 9 52 42 -21 12 -36 29 -36 40 0 38 89 38 213 -1 71 -22 88 -39 36
-36 -28 1 -33 -3 -46 -39 -17 -50 -29 -63 -45 -47 -9 9 -9 23 0 59 6 27 7 51
3 56 -4 4 -32 10 -62 13 l-54 6 40 -35 c34 -30 38 -38 29 -54 -10 -16 -24 -18
-140 -14 -71 2 -130 4 -131 5 -1 0 -5 29 -8 63 -7 59 -7 61 16 66 47 9 128 7
134 -3z m3795 -15 c31 -16 100 -82 100 -97 0 -16 -19 -8 -30 13 -6 11 -32 34
-58 50 -37 23 -57 29 -101 29 -67 0 -108 -22 -141 -74 -23 -38 -36 -42 -26 -8
10 30 76 91 110 102 39 12 108 5 146 -15z m-3982 -11 c29 -20 29 -64 0 -92
-20 -18 -88 -41 -125 -42 -14 0 -49 108 -38 118 29 30 129 40 163 16z m4804
-59 c11 -21 8 -18 -32 30 -24 29 -24 29 -2 10 13 -11 28 -29 34 -40z m790 33
c-7 -7 -12 -8 -12 -2 0 14 12 26 19 19 2 -3 -1 -11 -7 -17z m-5782 3 c0 -5
-19 -16 -42 -23 -44 -15 -53 -25 -39 -46 7 -11 15 -11 46 2 21 9 40 14 43 11
6 -6 6 -7 -41 -28 -33 -15 -36 -20 -27 -36 9 -19 12 -19 46 -5 20 8 39 13 42
10 7 -8 7 -7 -57 -34 -37 -15 -58 -19 -66 -12 -19 16 -48 101 -38 111 6 6 117
56 131 59 1 0 2 -4 2 -9z m4132 -16 c14 -4 36 -17 48 -30 l22 -23 -64 -7 c-34
-3 -89 -5 -122 -3 l-58 3 18 23 c21 25 90 53 114 47 8 -2 27 -7 42 -10z
m-3333 -58 c41 -25 26 -35 -18 -13 -38 20 -47 20 -55 1 -4 -11 5 -21 29 -32
19 -9 35 -20 35 -25 0 -11 -7 -10 -42 8 -30 15 -32 15 -45 -2 -12 -16 -10 -20
23 -37 58 -30 32 -30 -30 0 -62 30 -61 27 -25 110 l18 42 38 -15 c21 -9 53
-25 72 -37z m-962 -54 c-5 -31 -4 -34 24 -40 32 -6 38 -18 13 -27 -23 -9 -49
-7 -80 4 -25 10 -26 12 -10 29 9 10 14 25 10 35 -7 20 -15 20 -39 2 -16 -11
-17 -22 -12 -85 5 -66 4 -72 -16 -86 -19 -12 -28 -12 -62 0 -22 8 -49 14 -61
15 -32 0 -36 11 -13 36 19 21 23 21 66 8 26 -8 50 -14 55 -14 4 0 8 26 8 59 0
53 3 61 27 76 31 21 74 34 87 27 4 -2 6 -20 3 -39z m5164 10 c13 -16 12 -17
-3 -4 -10 7 -18 15 -18 17 0 8 8 3 21 -13z m-4122 -2 c16 -10 8 -27 -46 -90
-23 -27 -31 -31 -40 -20 -8 11 -4 27 19 67 30 52 41 59 67 43z m4092 -8 c13
-16 12 -17 -3 -4 -10 7 -18 15 -18 17 0 8 8 3 21 -13z m-4047 -29 c9 -3 17
-24 21 -52 13 -98 12 -96 44 -60 16 18 33 28 39 24 21 -13 12 -30 -35 -69 -55
-46 -69 -39 -79 39 -3 30 -10 54 -14 54 -4 0 -15 -9 -25 -20 -20 -22 -35 -26
-35 -9 0 10 58 99 65 99 2 0 10 -3 19 -6z m3296 -4 c0 -5 -7 -10 -15 -10 -8 0
-15 -4 -15 -10 0 -5 6 -10 13 -10 9 0 8 -3 -2 -9 -7 -5 -10 -14 -7 -20 4 -6
12 -9 17 -6 5 4 9 1 9 -4 0 -6 -9 -11 -20 -11 -17 0 -20 7 -20 45 0 38 3 45
20 45 11 0 20 -4 20 -10z m70 1 c0 -5 -10 -11 -22 -13 -32 -4 -31 -40 2 -49
22 -5 23 -7 7 -14 -36 -15 -64 44 -35 73 14 14 48 16 48 3z m696 -23 l29 -33
-32 29 c-31 28 -38 36 -30 36 2 0 16 -15 33 -32z m-1031 -15 c-2 -8 0 -23 5
-34 6 -11 7 -19 1 -19 -5 0 -12 8 -16 18 -7 16 -8 15 -15 -3 -7 -15 -9 -10 -9
21 -1 22 2 44 6 47 10 11 34 -15 28 -30z m74 15 c16 -45 -13 -84 -44 -58 -28
24 -12 80 22 80 8 0 17 -10 22 -22z m52 -22 c1 -6 5 3 9 19 7 27 8 26 8 -15
l1 -45 -19 24 -20 23 -1 -23 c-1 -17 -4 -14 -8 11 -4 19 -5 39 -3 44 5 10 31
-21 33 -38z m82 37 c-7 -2 -13 -20 -13 -39 0 -19 -4 -34 -10 -34 -5 0 -10 15
-10 34 0 19 -6 37 -12 39 -7 3 3 5 22 5 19 0 29 -2 23 -5z m-256 -65 c-2 -13
-4 -3 -4 22 0 25 2 35 4 23 2 -13 2 -33 0 -45z m1064 25 c13 -16 12 -17 -3 -4
-10 7 -18 15 -18 17 0 8 8 3 21 -13z m-701 -121 c0 -16 -76 -81 -112 -97 -43
-17 -105 -20 -144 -5 -30 12 -98 79 -89 88 3 3 20 -8 38 -25 44 -42 69 -53
117 -53 55 0 101 21 141 64 33 35 49 44 49 28z m-86 -13 c-10 -17 -70 -39
-104 -39 -34 0 -90 25 -90 40 0 6 42 10 101 10 70 0 98 -3 93 -11z m-1445 -37
c25 -25 50 -97 37 -109 -13 -13 -27 12 -21 38 6 26 1 35 -30 64 -20 19 -31 35
-25 35 6 0 24 -12 39 -28z m-3625 -49 c-22 -35 -42 -39 -69 -13 l-25 24 27 28
27 28 25 -25 c20 -20 23 -29 15 -42z m-46 -68 c3 -25 2 -27 -12 -16 -11 9 -16
10 -16 2 0 -6 -4 -11 -10 -11 -11 0 -14 43 -3 54 15 15 38 -1 41 -29z m57 5
c0 -29 -32 -41 -41 -16 -9 24 4 48 23 44 12 -2 18 -12 18 -28z m36 18 c0 -10
2 -10 6 0 9 23 23 12 23 -19 0 -27 -2 -30 -15 -19 -10 9 -15 9 -15 1 0 -6 -4
-11 -10 -11 -5 0 -10 14 -10 30 0 28 19 44 21 18z m87 -14 c2 -15 -4 -23 -18
-27 -23 -6 -36 13 -26 39 8 22 40 13 44 -12z m43 4 c-12 -32 -31 -34 -31 -4 0
19 5 26 20 26 16 0 18 -4 11 -22z m-941 -68 c0 -5 -9 -10 -20 -10 -11 0 -20
-7 -20 -15 0 -8 9 -15 20 -15 11 0 20 -4 20 -10 0 -5 -9 -10 -20 -10 -29 0
-27 -37 3 -43 16 -3 13 -5 -10 -6 l-33 -1 0 54 c0 52 1 55 28 59 15 2 28 5 30
6 1 0 2 -3 2 -9z m75 -6 c14 -14 14 -19 2 -38 -13 -19 -13 -25 -1 -41 21 -28
5 -33 -16 -5 l-20 25 0 -22 c0 -13 -4 -23 -10 -23 -11 0 -14 103 -3 113 11 12
31 8 48 -9z m89 2 c-18 -14 -18 -16 -1 -33 14 -15 21 -16 37 -5 17 11 20 10
20 -8 0 -26 -34 -60 -62 -60 -53 0 -79 74 -36 104 12 9 31 16 42 16 20 0 20 0
0 -14z m120 2 c2 -7 8 -27 13 -44 6 -19 7 -38 1 -48 -12 -22 -55 -21 -61 2 -7
27 -8 82 -2 93 9 13 45 11 49 -3z m79 5 c-15 -3 -23 -12 -23 -24 0 -13 7 -19
23 -20 l22 -2 -22 -4 c-30 -6 -32 -43 -3 -43 11 0 20 -4 20 -10 0 -5 -13 -10
-30 -10 l-30 0 0 60 0 60 33 -1 c23 -1 26 -3 10 -6z m113 -49 c24 -54 27 -88
4 -45 -6 12 -19 21 -30 21 -11 0 -24 -9 -30 -21 -7 -11 -14 -18 -17 -15 -6 5
36 116 44 116 2 0 15 -25 29 -56z m91 40 c3 -9 1 -25 -6 -36 -10 -16 -9 -23 5
-39 9 -10 12 -19 6 -19 -6 0 -18 10 -26 22 l-16 22 0 -22 c0 -12 -4 -22 -10
-22 -5 0 -10 25 -10 55 0 52 1 55 25 55 15 0 28 -7 32 -16z m1173 1 c0 -8 -4
-15 -9 -15 -5 0 -11 7 -15 15 -3 9 0 15 9 15 8 0 15 -7 15 -15z m2610 5 c0 -5
-2 -10 -4 -10 -3 0 -8 5 -11 10 -3 6 -1 10 4 10 6 0 11 -4 11 -10z m-4430 -8
c0 -5 -13 -7 -30 -4 -24 3 -32 0 -42 -23 -16 -36 0 -60 41 -60 35 0 41 -10 11
-20 -53 -17 -94 58 -58 103 12 13 78 17 78 4z m2170 -67 c-7 -9 -15 -13 -17
-11 -7 7 7 26 19 26 6 0 6 -6 -2 -15z m784 -8 c25 -19 18 -61 -12 -65 -18 -3
-25 3 -33 28 -9 24 -15 29 -30 25 -10 -4 -19 -4 -19 -1 0 4 48 21 71 25 3 1
13 -5 23 -12z m1620 -2 c11 -8 18 -17 15 -19 -2 -3 -15 4 -29 14 -14 11 -20
20 -15 19 6 0 19 -6 29 -14z m-2284 -47 c0 -7 -5 -20 -10 -28 -8 -12 -10 -9
-10 13 0 15 5 27 10 27 6 0 10 -6 10 -12z m2240 -62 c0 -5 -1 -7 -3 -5 -2 2
-15 22 -31 44 l-27 40 30 -35 c17 -19 31 -39 31 -44z m-3330 54 c0 -5 -12 -10
-27 -10 -25 0 -25 -1 -10 -18 10 -10 17 -25 17 -33 0 -8 -10 1 -21 19 -12 17
-25 32 -31 32 -5 0 -6 5 -3 10 3 6 22 10 41 10 19 0 34 -4 34 -10z m-1400 -10
c0 -5 -4 -10 -10 -10 -5 0 -10 5 -10 10 0 6 5 10 10 10 6 0 10 -4 10 -10z
m-120 -38 c0 -21 5 -43 12 -50 6 -6 8 -15 4 -19 -4 -5 -14 1 -22 11 -16 22
-19 96 -4 96 6 0 10 -17 10 -38z m3315 -17 c0 -10 -5 -20 -11 -22 -6 -2 -10 7
-10 19 1 19 -5 24 -39 29 -38 5 -39 5 -10 10 36 6 70 -12 70 -36z m-3249 17
c13 23 13 23 14 1 0 -32 -19 -78 -29 -67 -13 15 -30 72 -23 79 4 3 11 -3 16
-15 l10 -21 12 23z m54 -28 c0 -27 -4 -43 -10 -39 -5 3 -10 24 -10 46 0 21 5
39 10 39 6 0 10 -21 10 -46z m78 4 c2 -22 -1 -38 -7 -38 -6 0 -11 14 -11 30 0
17 -4 30 -10 30 -5 0 -10 -13 -10 -30 0 -16 -4 -30 -10 -30 -11 0 -14 63 -3
74 4 4 16 6 28 4 15 -2 21 -12 23 -40z m-340 20 c9 -9 12 -9 12 0 0 7 3 12 8
12 4 0 7 -18 7 -40 0 -22 -3 -40 -7 -40 -5 0 -8 5 -8 12 0 9 -3 9 -12 0 -18
-18 -33 -15 -18 3 10 12 10 21 2 40 -12 27 -4 33 16 13z m102 8 c0 -2 3 -11 6
-20 4 -10 1 -16 -9 -16 -9 0 -19 -5 -23 -11 -4 -8 1 -9 17 -4 21 7 22 6 10 -9
-18 -22 -38 -20 -51 4 -16 30 -3 60 26 60 13 0 24 -2 24 -4z m1505 -28 c14 -6
25 -15 25 -20 0 -5 -13 -2 -30 7 -45 23 -41 34 5 13z m1094 -36 c38 -28 61
-76 61 -124 -1 -27 -2 -30 -11 -16 -5 9 -15 15 -22 13 -16 -5 -100 122 -86
131 6 3 8 13 5 21 -7 16 3 12 53 -25z m4337 3 c-4 -12 0 -14 17 -11 12 3 147
8 299 11 l277 6 3 -453 c2 -249 1 -456 -2 -460 -5 -7 -263 131 -283 151 -5 5
19 43 55 86 55 68 69 79 111 90 59 15 93 43 75 61 -18 17 -102 45 -106 35 -3
-10 -50 -2 -58 10 -3 5 -13 9 -22 9 -14 0 -14 -2 -3 -9 14 -9 -49 -19 -124
-19 -35 0 -37 1 -15 8 16 5 -24 8 -110 9 -122 1 -140 4 -189 26 l-54 25 23 25
c17 18 34 25 61 25 60 0 66 21 17 60 -38 31 -152 69 -166 56 -3 -3 9 -9 26
-12 45 -9 40 -25 -5 -19 -56 8 -126 35 -143 55 -8 10 -31 23 -52 29 -20 7 -56
29 -80 49 -82 70 -79 70 -145 -5 l-59 -65 -74 28 -75 29 -845 -2 c-522 -1
-910 -6 -1015 -13 -94 -6 -181 -12 -195 -13 -24 -2 -25 0 -28 71 -2 39 1 72 5
72 4 1 42 5 83 10 41 6 649 14 1350 20 864 6 1276 13 1278 20 5 15 82 13 82
-2 0 -8 6 -6 17 5 22 22 78 24 69 2z m-5418 -48 c-4 -35 -16 -43 -42 -24 -18
13 -18 14 5 13 31 -1 32 26 2 39 -34 15 -28 26 8 13 26 -9 30 -15 27 -41z
m1162 -12 c0 -5 -9 4 -20 20 -11 17 -20 35 -20 40 0 6 9 -3 20 -20 11 -16 20
-34 20 -40z m685 46 c-6 -5 -30 -5 -55 -1 l-45 7 55 2 c32 0 50 -3 45 -8z m-2
-58 c-13 -2 -33 -2 -45 0 -13 2 -3 4 22 4 25 0 35 -2 23 -4z m-1093 -13 c0 -5
-2 -10 -4 -10 -3 0 -8 5 -11 10 -3 6 -1 10 4 10 6 0 11 -4 11 -10z m525 -10
c8 -13 -25 -13 -45 0 -12 8 -9 10 12 10 15 0 30 -4 33 -10z m-265 -28 c0 -15
-2 -15 -10 -2 -13 20 -13 33 0 25 6 -3 10 -14 10 -23z m847 -2 c3 -23 3 -23
-10 -6 -7 10 -29 22 -47 26 -35 9 -34 9 9 7 39 -2 45 -5 48 -27z m-1872 -11
c0 -14 -6 -24 -15 -25 -9 0 -10 1 -2 3 6 3 12 10 12 17 0 6 -6 18 -12 25 -11
11 -10 13 2 9 8 -3 15 -15 15 -29z m983 -45 l3 -71 -68 -6 c-46 -3 -70 -1 -75
6 -4 7 -8 40 -8 74 0 69 0 69 100 68 l45 0 3 -71z m-248 46 c0 -5 -4 -10 -10
-10 -5 0 -10 5 -10 10 0 6 5 10 10 10 6 0 10 -4 10 -10z m1139 -35 c11 -12 -7
-11 -49 1 l-45 14 45 -6 c24 -3 46 -7 49 -9z m-1409 -25 c0 -5 -5 -12 -11 -16
-14 -8 -33 11 -25 25 7 11 36 4 36 -9z m1460 10 c0 -5 -4 -10 -10 -10 -5 0
-10 5 -10 10 0 6 5 10 10 10 6 0 10 -4 10 -10z m-1933 -16 c-3 -3 -12 -4 -19
-1 -8 3 -5 6 6 6 11 1 17 -2 13 -5z m742 -14 c15 8 17 6 14 -13 -4 -23 37 -77
60 -77 7 0 3 -7 -7 -15 -17 -13 -17 -15 -3 -21 10 -3 17 -10 17 -16 0 -5 -5
-6 -10 -3 -6 4 -17 1 -25 -5 -23 -19 -78 28 -93 78 -17 55 -16 68 3 52 13 -11
15 -8 16 16 1 17 3 22 6 12 3 -14 9 -16 22 -8z m1125 7 c27 -20 18 -62 -14
-62 -20 0 -26 6 -28 30 -2 16 -9 33 -15 37 -7 5 -1 8 14 8 14 0 33 -6 43 -13z
m-574 -17 c-8 -5 -19 -10 -25 -10 -5 0 -3 5 5 10 8 5 20 10 25 10 6 0 3 -5 -5
-10z m2105 -36 c14 -9 25 -23 25 -30 0 -8 9 -14 20 -14 11 0 20 -5 20 -11 0
-6 -7 -8 -16 -5 -9 3 -20 6 -25 6 -5 0 -9 7 -9 15 0 9 -9 15 -25 15 -18 0 -25
5 -25 20 0 24 4 25 35 4z m125 -9 c0 -16 -6 -25 -15 -25 -9 0 -15 9 -15 25 0
16 6 25 15 25 9 0 15 -9 15 -25z m194 19 c20 -8 21 -44 1 -44 -8 0 -15 5 -15
10 0 6 -18 10 -40 10 -29 0 -40 -4 -40 -15 0 -17 -25 -20 -35 -5 -3 5 -1 19 5
30 8 16 21 20 60 20 26 0 55 -3 64 -6z m259 -9 c-1 -5 -13 -11 -27 -13 -18 -2
-26 -10 -28 -28 -4 -32 -22 -32 -26 1 -3 20 -9 25 -32 25 -29 0 -45 12 -33 24
11 11 148 2 146 -9z m123 -3 c1 -7 2 -19 3 -27 1 -11 13 -15 46 -15 41 0 45 2
45 24 0 22 16 44 25 35 2 -2 6 -28 10 -56 5 -44 4 -53 -9 -53 -9 0 -16 7 -16
15 0 11 -12 15 -50 15 -27 0 -50 -4 -50 -10 0 -5 -7 -10 -15 -10 -11 0 -15 12
-15 51 0 36 4 49 13 47 6 -3 13 -10 13 -16z m-4093 1 c-7 -2 -19 -2 -25 0 -7
3 -2 5 12 5 14 0 19 -2 13 -5z m3287 -13 c0 -11 -5 -20 -11 -20 -5 0 -7 5 -4
10 4 6 -15 10 -50 10 -35 0 -54 -4 -50 -10 3 -5 -1 -10 -9 -10 -9 0 -14 8 -13
20 1 18 8 20 69 20 61 0 68 -2 68 -20z m-1470 -30 c6 -11 8 -25 5 -30 -8 -13
15 -24 27 -12 8 8 7 16 -3 28 -12 15 -12 17 1 12 20 -6 26 -56 7 -64 -9 -3
-32 4 -54 16 -21 11 -28 18 -15 15 18 -5 22 -2 22 15 0 12 -9 24 -22 30 l-23
9 22 0 c13 1 27 -8 33 -19z m-1805 -10 c8 -24 -1 -40 -23 -40 -13 0 -13 2 3
14 16 12 17 16 6 30 -8 9 -9 16 -3 16 6 0 13 -9 17 -20z m3375 10 c0 -5 -7
-10 -15 -10 -8 0 -15 5 -15 10 0 6 7 10 15 10 8 0 15 -4 15 -10z m-2381 -21
c-16 -10 -23 -4 -14 10 3 6 11 8 17 5 6 -4 5 -9 -3 -15z m2173 -6 c3 -25 6
-28 38 -25 19 1 37 7 38 12 5 15 42 12 42 -2 -1 -32 -17 -39 -81 -36 l-64 3
-3 38 c-2 27 1 37 12 37 9 0 16 -11 18 -27z m338 17 c0 -5 -7 -10 -15 -10 -8
0 -15 5 -15 10 0 6 7 10 15 10 8 0 15 -4 15 -10z m-6524 -48 c-8 -23 -20 -67
-26 -100 -9 -46 -16 -58 -32 -59 -18 -2 -19 2 -12 53 6 55 6 56 -17 52 -20 -2
-25 -11 -33 -55 -7 -43 -13 -53 -29 -53 -18 0 -19 5 -13 49 3 27 13 72 22 100
13 44 18 51 40 51 21 0 23 -3 14 -19 -17 -33 -12 -53 12 -49 15 2 25 13 31 35
6 21 17 33 31 35 28 5 28 6 12 -40z m228 -9 c4 -32 9 -80 12 -106 6 -47 5 -49
-17 -45 -16 2 -25 11 -27 26 -5 33 -59 31 -72 -3 -6 -15 -17 -25 -30 -25 -11
0 -20 3 -20 6 0 18 72 153 95 177 39 41 52 35 59 -30z m3458 40 c8 -10 15 -27
15 -37 0 -16 -4 -15 -24 10 -12 16 -23 32 -23 37 0 13 16 8 32 -10z m193 7 c3
-6 -1 -7 -9 -4 -18 7 -21 14 -7 14 6 0 13 -4 16 -10z m2735 0 c0 -5 -4 -10
-10 -10 -5 0 -10 5 -10 10 0 6 5 10 10 10 6 0 10 -4 10 -10z m-7026 -62 l-5
-63 30 63 c22 47 35 62 51 62 20 0 19 -2 -9 -57 -16 -32 -34 -77 -41 -100 -9
-30 -19 -43 -31 -43 -14 0 -19 12 -25 68 l-7 67 -27 -60 c-18 -42 -29 -55 -35
-46 -6 11 -11 10 -22 -4 -11 -17 -13 -11 -13 42 0 89 9 123 32 123 20 0 20 -4
1 -87 -8 -36 12 -27 25 11 16 43 49 86 67 86 10 0 12 -15 9 -62z m243 55 c-33
-5 -49 -35 -67 -130 -10 -50 -16 -63 -31 -63 -16 0 -18 6 -12 48 3 26 12 66
18 90 13 41 13 42 -12 42 -13 0 -21 4 -18 10 3 6 39 9 78 9 40 -1 59 -4 44 -6z
m588 -75 c3 -46 9 -91 11 -100 4 -14 -1 -18 -20 -18 -21 0 -26 5 -26 25 0 21
-5 25 -30 25 -23 0 -33 -6 -40 -25 -9 -24 -50 -37 -50 -16 0 17 33 86 66 138
25 40 40 53 58 53 23 0 24 -4 31 -82z m179 76 c27 -10 20 -44 -9 -44 -16 0
-25 6 -25 15 0 8 -9 15 -20 15 -19 0 -29 -23 -46 -107 -8 -40 13 -54 37 -25
22 27 61 30 52 5 -13 -37 -36 -53 -74 -53 -29 0 -42 6 -53 23 -14 20 -14 30 0
87 8 36 22 71 31 78 18 13 80 16 107 6z m96 -20 c-15 -38 -12 -54 10 -54 14 0
22 11 31 40 10 33 17 40 37 40 17 0 23 -4 18 -15 -3 -8 -13 -52 -21 -98 -21
-108 -21 -106 -44 -100 -17 4 -19 11 -14 54 5 45 4 49 -15 49 -14 0 -23 -8
-26 -22 -15 -74 -17 -78 -36 -78 -25 0 -26 28 -5 120 21 90 21 90 49 90 23 0
25 -2 16 -26z m223 16 c60 0 54 -17 -8 -22 -33 -2 -41 -7 -43 -25 -3 -20 1
-23 32 -23 38 0 39 -1 31 -22 -4 -10 -16 -13 -36 -10 -34 5 -49 -9 -49 -45 0
-20 5 -23 40 -23 33 0 40 -3 40 -20 0 -18 -7 -20 -65 -20 -65 0 -65 0 -65 28
0 36 18 137 31 169 6 17 14 23 25 19 9 -3 39 -6 67 -6z m5477 -20 c0 -20 -5
-30 -15 -30 -10 0 -15 10 -15 30 0 20 5 30 15 30 10 0 15 -10 15 -30z m-6972
12 c16 -11 3 -49 -27 -77 -16 -14 -20 -26 -16 -44 5 -21 4 -23 -8 -12 -12 9
-16 9 -20 -1 -3 -7 -6 -3 -6 10 -1 15 -7 22 -21 22 -14 0 -20 -7 -21 -22 -1
-18 -2 -19 -6 -5 -2 9 -9 14 -15 11 -13 -9 -4 63 14 101 10 22 17 25 62 25 28
0 57 -4 64 -8z m1623 -42 c7 -27 16 -50 19 -50 4 0 11 21 16 48 7 39 13 48 33
50 23 4 24 2 16 -40 -4 -23 -13 -74 -19 -113 -7 -38 -15 -69 -19 -67 -4 1 -13
2 -21 2 -9 0 -20 25 -31 65 -10 35 -21 62 -25 60 -4 -3 -11 -30 -15 -60 -6
-49 -9 -55 -29 -55 -25 0 -25 -5 -5 115 15 89 18 95 44 95 19 0 25 -8 36 -50z
m5479 25 c0 -31 -11 -32 -47 0 l-28 24 38 1 c33 0 37 -3 37 -25z m207 19 c-3
-3 -12 -4 -19 -1 -8 3 -5 6 6 6 11 1 17 -2 13 -5z m3 -21 c13 -11 -31 -23 -80
-21 -42 2 -56 7 -58 19 -3 15 6 16 65 12 37 -3 70 -8 73 -10z m187 11 c-3 -3
-12 -4 -19 -1 -8 3 -5 6 6 6 11 1 17 -2 13 -5z m-3032 -14 c-3 -5 -13 -10 -21
-10 -8 0 -12 5 -9 10 3 6 13 10 21 10 8 0 12 -4 9 -10z m3210 0 c3 -5 -1 -10
-9 -10 -9 0 -16 5 -16 10 0 6 4 10 9 10 6 0 13 -4 16 -10z m-185 -10 c0 -5 -4
-10 -10 -10 -5 0 -10 5 -10 10 0 6 5 10 10 10 6 0 10 -4 10 -10z m108 3 c-10
-2 -28 -2 -40 0 -13 2 -5 4 17 4 22 1 32 -1 23 -4z m202 -3 c0 -5 -4 -10 -10
-10 -5 0 -10 5 -10 10 0 6 5 10 10 10 6 0 10 -4 10 -10z m-4190 -15 c10 -12
10 -18 0 -30 -7 -8 -17 -15 -23 -15 -6 0 -2 7 9 15 19 15 19 15 0 30 -11 8
-15 15 -9 15 6 0 16 -7 23 -15z m1820 -26 c0 -13 -6 -12 -50 11 -53 27 -51 32
5 13 25 -8 45 -19 45 -24z m-36 -37 c30 6 36 -11 6 -19 -16 -4 -18 -9 -9 -25
6 -11 8 -22 5 -25 -3 -3 -11 6 -17 21 -8 18 -20 26 -38 27 -17 1 -20 3 -8 6
20 5 20 7 6 36 -9 20 -8 20 9 -2 14 -18 26 -23 46 -19z m-1400 -52 c52 -79 57
-94 21 -60 -36 33 -89 130 -71 130 1 0 24 -31 50 -70z m-370 44 c17 -7 23 -54
6 -54 -5 0 -7 7 -3 16 4 11 -1 22 -12 30 -20 15 -16 18 9 8z m267 -73 c6 -14
10 -27 10 -29 -1 -1 6 -16 15 -33 8 -17 11 -28 5 -25 -18 11 -71 94 -71 110 0
24 30 7 41 -23z m-11 -66 c40 -62 46 -85 10 -44 -26 31 -80 121 -79 134 0 12
15 -8 69 -90z m-1647 49 c15 -16 -8 -34 -43 -34 -39 0 -56 12 -45 30 7 11 78
14 88 4z m2567 -30 c0 -17 -22 -14 -28 4 -2 7 3 12 12 12 9 0 16 -7 16 -16z
m-490 -30 c0 -17 -22 -14 -28 4 -2 7 3 12 12 12 9 0 16 -7 16 -16z m-476 -10
c3 -8 2 -12 -4 -9 -6 3 -10 10 -10 16 0 14 7 11 14 -7z m2996 -44 l18 -45 11
28 c12 30 28 28 40 -6 7 -19 11 -15 30 28 21 47 23 49 37 31 8 -11 14 -25 13
-30 0 -6 -3 -5 -6 2 -9 22 -20 13 -37 -28 -18 -45 -30 -50 -47 -18 l-12 23
-10 -23 c-14 -30 -28 -24 -50 22 -15 31 -20 36 -32 26 -18 -15 -19 -6 -4 21
15 29 29 20 49 -31z m268 -63 c25 -5 24 -5 -3 -3 -29 1 -30 3 -31 51 l-1 50 4
-47 c4 -42 7 -47 31 -51z m89 26 c-2 -16 -4 -3 -4 27 0 30 2 43 4 28 2 -16 2
-40 0 -55z m147 69 c2 -4 -11 -6 -30 -4 -28 4 -35 0 -43 -19 -6 -14 -10 -18
-10 -8 -1 8 4 20 11 27 13 13 64 16 72 4z m116 -42 c22 0 30 5 33 23 3 17 5
15 6 -8 1 -30 -1 -31 -33 -27 -31 4 -35 1 -39 -24 -2 -16 -4 -2 -4 31 0 33 2
48 4 33 4 -23 9 -28 33 -28z m165 43 c-11 -3 -23 -10 -27 -17 -6 -8 -8 -8 -8
1 0 6 -8 14 -17 16 -10 3 2 5 27 5 25 0 36 -3 25 -5z m89 -34 l9 -34 15 38 c8
20 18 37 22 37 4 0 14 -17 23 -37 l15 -38 7 33 c7 30 21 49 30 40 9 -8 -28
-109 -38 -105 -6 2 -16 19 -23 38 l-12 34 -11 -28 c-6 -16 -11 -33 -11 -38 0
-5 -6 -9 -13 -9 -8 0 -19 18 -26 41 -7 23 -15 48 -18 56 -4 10 -1 14 7 11 8
-2 18 -20 24 -39z m245 -10 c13 -28 19 -54 15 -57 -4 -4 -9 -1 -11 6 -3 6 -17
12 -33 12 -16 0 -30 -6 -33 -12 -2 -7 -8 -10 -12 -5 -9 8 34 107 45 107 4 0
17 -23 29 -51z m125 23 l17 23 -12 -25 c-7 -14 -16 -38 -20 -55 -6 -28 -7 -28
-8 -5 -1 14 -10 36 -21 50 -28 35 -24 51 4 17 l23 -28 17 23z m-487 -64 c-2
-13 -4 -5 -4 17 -1 22 1 32 4 23 2 -10 2 -28 0 -40z m-249 15 c-2 -23 -8 -28
-31 -29 -25 -1 -25 -1 -2 3 27 5 35 37 13 46 -8 3 -5 6 5 6 14 1 18 -5 15 -26z
m-75 -3 c3 -11 1 -18 -4 -14 -5 3 -9 12 -9 20 0 20 7 17 13 -6z m-4990 -25
c-3 -9 -8 -14 -10 -11 -3 3 -2 9 2 15 9 16 15 13 8 -4z m1564 -100 c9 -24 -1
-27 -15 -5 -8 13 -8 20 -2 20 6 0 13 -7 17 -15z m1306 -46 c49 -12 54 -15 46
-31 -11 -21 -48 -23 -101 -4 l-38 14 -1 -47 c0 -40 -1 -43 -10 -21 -6 13 -9
40 -7 60 2 28 7 34 22 32 12 -2 16 1 10 9 -5 8 -2 11 8 7 8 -4 40 -12 71 -19z
m-1168 -59 c3 -5 2 -10 -4 -10 -5 0 -13 5 -16 10 -3 6 -2 10 4 10 5 0 13 -4
16 -10z m69 -35 c11 -8 16 -15 10 -15 -5 0 -18 7 -28 15 -11 8 -16 15 -10 15
5 0 18 -7 28 -15z m917 0 c33 -15 33 -16 5 -10 -25 5 -28 4 -17 -9 11 -13 8
-13 -21 -3 -44 15 -45 17 -28 27 20 13 22 13 61 -5z m-843 -44 c3 -8 -5 -7
-22 4 -32 21 -33 27 -4 16 12 -4 24 -14 26 -20z m753 -3 c11 -20 11 -22 -3
-10 -12 10 -18 10 -23 1 -6 -8 -10 -8 -16 2 -4 7 -5 17 -3 21 10 15 33 8 45
-14z m-647 -39 c-6 -11 -24 -2 -24 11 0 5 7 7 15 4 8 -4 12 -10 9 -15z m5421
12 c3 -5 1 -12 -5 -16 -5 -3 -10 1 -10 9 0 18 6 21 15 7z m-4929 -19 c1 -7 0
-8 -3 -2 -3 8 -9 7 -19 -1 -8 -6 -14 -7 -14 -2 0 24 31 28 36 5z m-106 -17
c-7 -8 -18 -15 -24 -15 -6 0 -2 7 8 15 25 19 32 19 16 0z m-80 -4 c0 -5 -9 -7
-20 -4 -11 3 -20 7 -20 9 0 2 9 4 20 4 11 0 20 -4 20 -9z"/>
<path d="M5647 5073 c-4 -3 -7 -33 -7 -65 0 -51 2 -58 20 -58 18 0 20 7 20 65
0 47 -4 65 -13 65 -8 0 -17 -3 -20 -7z"/>
<path d="M5720 5015 l0 -65 50 0 c28 0 50 5 50 10 0 6 -16 10 -35 10 -28 0
-35 4 -35 20 0 16 7 20 31 20 17 0 28 4 24 10 -3 6 -17 10 -31 10 -15 0 -24 6
-24 15 0 11 11 15 36 15 21 0 33 4 29 10 -3 6 -26 10 -51 10 l-44 0 0 -65z"/>
<path d="M5850 5025 c0 -30 0 -58 -1 -62 0 -4 4 -9 10 -11 7 -2 11 15 12 45
l1 48 20 -47 c11 -27 26 -48 32 -48 7 0 22 21 33 48 l21 47 1 -47 c1 -36 5
-48 16 -48 12 0 15 14 15 65 0 59 -2 65 -20 65 -15 0 -27 -13 -40 -42 l-19
-43 -18 42 c-14 32 -24 43 -40 43 -21 0 -23 -5 -23 -55z"/>
<path d="M6057 5073 c-4 -3 -7 -33 -7 -65 l0 -58 50 0 c28 0 50 5 50 10 0 6
-13 10 -30 10 -23 0 -30 4 -30 20 0 15 7 20 25 20 14 0 25 5 25 10 0 6 -11 10
-25 10 -16 0 -25 6 -25 15 0 10 10 15 30 15 17 0 30 5 30 10 0 11 -83 14 -93
3z"/>
<path d="M5520 5050 c-13 -25 -7 -36 31 -55 37 -20 37 -35 -1 -35 -16 0 -30
-4 -30 -10 0 -18 66 -11 85 10 22 25 13 48 -25 61 -46 17 -38 35 13 30 9 -1
17 3 17 8 0 6 -18 11 -40 11 -29 0 -42 -5 -50 -20z"/>
<path d="M6180 5010 c0 -33 4 -60 9 -60 12 0 21 25 21 58 1 24 4 21 26 -20 37
-71 58 -65 62 17 2 41 -1 65 -7 65 -6 0 -11 -18 -11 -40 0 -50 -10 -50 -33 0
-14 31 -24 40 -43 40 -23 0 -24 -3 -24 -60z"/>
<path d="M6337 5053 c-16 -15 -5 -45 23 -61 39 -22 39 -42 0 -42 -16 0 -30 -4
-30 -10 0 -5 18 -10 40 -10 29 0 42 5 50 20 9 17 6 24 -16 45 -15 14 -31 25
-36 25 -5 0 -8 6 -5 13 2 7 16 11 31 9 19 -3 26 0 22 7 -8 12 -68 15 -79 4z"/>
<path d="M8652 4924 l2 -59 3 53 c4 47 6 51 23 42 12 -6 27 -7 42 -1 22 9 21
10 -9 10 -17 1 -38 4 -47 7 -14 5 -16 -3 -14 -52z"/>
<path d="M8778 4953 c7 -3 16 -2 19 1 4 3 -2 6 -13 5 -11 0 -14 -3 -6 -6z"/>
<path d="M8573 4848 c2 -12 8 -22 13 -20 14 3 11 35 -4 40 -8 2 -11 -4 -9 -20z"/>
<path d="M8777 4843 c-3 -15 -3 -32 0 -36 8 -14 30 12 29 35 -2 32 -23 33 -29
1z"/>
<path d="M8621 4823 c-1 -6 -4 -20 -7 -30 -5 -17 -5 -17 6 0 6 10 9 23 6 30
-3 9 -5 9 -5 0z"/>
<path d="M8800 4800 c0 -5 5 -10 11 -10 5 0 7 5 4 10 -3 6 -8 10 -11 10 -2 0
-4 -4 -4 -10z"/>
<path d="M8805 4761 c-3 -5 -1 -12 5 -16 5 -3 10 1 10 9 0 18 -6 21 -15 7z"/>
<path d="M8580 4739 c0 -5 5 -7 10 -4 6 3 10 8 10 11 0 2 -4 4 -10 4 -5 0 -10
-5 -10 -11z"/>
<path d="M8851 4715 c0 -12 -6 -26 -11 -33 -6 -6 -7 -10 -4 -7 4 2 16 -1 28
-7 18 -9 19 -9 9 3 -6 8 -13 25 -16 39 -3 20 -5 21 -6 5z"/>
<path d="M8795 4690 c10 -11 20 -20 22 -20 2 0 -2 9 -9 20 -7 11 -17 20 -22
20 -5 0 -1 -9 9 -20z"/>
<path d="M8890 4690 c0 -5 5 -10 10 -10 6 0 10 5 10 10 0 6 -4 10 -10 10 -5 0
-10 -4 -10 -10z"/>
<path d="M5440 4604 c0 -6 7 -19 16 -30 14 -18 14 -18 3 6 -14 31 -19 36 -19
24z"/>
<path d="M8887 4599 c7 -7 15 -10 18 -7 3 3 -2 9 -12 12 -14 6 -15 5 -6 -5z"/>
<path d="M4891 4439 c-26 -28 -35 -72 -21 -98 13 -26 86 -29 116 -6 14 11 15
15 4 14 -36 -3 -51 3 -66 27 -16 24 -16 26 5 55 21 28 21 29 2 29 -11 0 -29
-10 -40 -21z"/>
<path d="M4993 4408 c22 -42 22 -43 25 -15 4 31 -12 57 -34 57 -10 0 -8 -11 9
-42z"/>
<path d="M5756 4437 c-25 -18 -15 -44 21 -59 l28 -12 -32 -4 c-46 -5 -41 -24
5 -20 30 2 38 7 40 25 3 17 -3 26 -22 33 -35 13 -34 34 0 26 19 -5 25 -3 22 6
-6 19 -40 21 -62 5z"/>
<path d="M5090 4384 l0 -55 35 3 c41 3 48 21 10 26 -29 4 -24 22 6 22 10 0 19
5 19 10 0 6 -11 10 -25 10 -14 0 -25 5 -25 10 0 6 11 10 24 10 14 0 28 5 31
10 4 6 -10 10 -34 10 l-41 0 0 -56z"/>
<path d="M5192 4388 c3 -52 4 -53 36 -56 24 -2 32 1 32 12 0 9 -9 16 -20 16
-17 0 -20 7 -20 40 0 29 -4 40 -16 40 -12 0 -14 -10 -12 -52z"/>
<path d="M5313 4428 c-15 -19 -36 -88 -29 -95 3 -4 14 1 24 10 23 21 39 21 50
1 5 -9 14 -14 20 -10 7 4 5 23 -6 56 -16 51 -38 65 -59 38z m25 -47 c-15 -5
-19 4 -11 24 6 18 7 18 13 -1 4 -10 3 -21 -2 -23z"/>
<path d="M5410 4390 c0 -55 17 -69 22 -17 l3 32 18 -32 c27 -50 47 -43 47 17
0 55 -17 69 -22 18 l-3 -33 -18 33 c-27 49 -47 42 -47 -18z"/>
<path d="M11260 4070 c0 -6 7 -10 15 -10 8 0 15 2 15 4 0 2 -7 6 -15 10 -8 3
-15 1 -15 -4z"/>
<path d="M651 5104 c0 -11 3 -14 6 -6 3 7 2 16 -1 19 -3 4 -6 -2 -5 -13z"/>
<path d="M652 5030 c0 -14 2 -19 5 -12 2 6 2 18 0 25 -3 6 -5 1 -5 -13z"/>
<path d="M651 4984 c0 -11 3 -14 6 -6 3 7 2 16 -1 19 -3 4 -6 -2 -5 -13z"/>
<path d="M4940 4910 c0 -49 1 -50 30 -50 35 0 50 22 43 68 -5 29 -9 32 -39 32
l-34 0 0 -50z"/>
<path d="M2987 4793 c-5 -9 8 -152 14 -157 2 -1 23 -1 47 2 48 5 58 29 15 34
-34 4 -38 32 -5 36 31 5 29 32 -3 32 -16 0 -25 6 -25 15 0 9 9 15 25 15 16 0
25 6 25 15 0 11 -12 15 -44 15 -25 0 -47 -3 -49 -7z"/>
<path d="M2876 4771 c-23 -25 -13 -59 20 -71 26 -10 42 -36 29 -48 -4 -4 -10
-1 -12 6 -6 17 -43 15 -43 -3 0 -20 37 -38 66 -31 53 14 51 72 -3 98 -31 15
-42 38 -19 38 9 0 16 -4 16 -9 0 -5 9 -7 20 -4 16 4 18 9 9 24 -13 25 -61 25
-83 0z"/>
<path d="M2713 4772 c-21 -3 -23 -9 -23 -60 0 -71 8 -102 26 -102 10 0 14 15
15 53 1 56 2 55 19 -11 15 -57 32 -50 46 19 l12 54 1 -52 c1 -46 4 -53 21 -53
22 0 25 27 14 114 -6 43 -9 46 -35 46 -25 0 -29 -4 -29 -27 0 -16 -4 -34 -9
-42 -7 -11 -11 -5 -16 22 -8 42 -11 45 -42 39z"/>
<path d="M2586 4763 c-14 -4 -17 -11 -12 -35 3 -17 6 -52 6 -79 l0 -49 34 0
c44 0 66 9 66 26 0 9 -11 14 -30 14 -20 0 -30 5 -30 15 0 9 9 15 25 15 18 0
25 5 25 20 0 17 -5 19 -25 14 -19 -5 -25 -2 -25 9 0 9 10 17 22 19 13 2 24 11
26 21 3 13 -3 17 -30 16 -18 -1 -41 -3 -52 -6z"/>
<path d="M2445 4750 c-3 -5 -3 -43 1 -85 6 -64 9 -75 25 -75 15 0 19 8 19 35
0 43 18 46 27 5 8 -42 43 -42 43 -1 0 17 -4 33 -10 36 -5 3 -7 19 -3 35 3 18
0 36 -7 45 -14 17 -85 21 -95 5z m65 -46 c0 -16 -16 -19 -25 -4 -8 13 4 32 16
25 5 -4 9 -13 9 -21z"/>
<path d="M2310 4718 c0 -18 3 -57 6 -85 l7 -53 41 6 c22 4 47 11 54 17 16 13
15 43 -2 59 -10 10 -11 17 -2 30 19 30 -4 53 -58 56 l-46 3 0 -33z m68 -16 c2
-7 -3 -12 -12 -12 -9 0 -16 7 -16 16 0 17 22 14 28 -4z m5 -56 c6 -15 -1 -26
-15 -26 -4 0 -8 9 -8 20 0 23 15 27 23 6z"/>
<path d="M2090 4716 c0 -12 3 -51 6 -85 6 -50 10 -61 25 -61 15 0 19 8 19 35
0 43 18 46 27 5 4 -21 11 -30 25 -30 18 0 19 4 14 33 -4 17 -7 47 -7 66 1 47
-14 61 -65 61 -40 0 -44 -2 -44 -24z m70 -26 c0 -11 -4 -20 -10 -20 -5 0 -10
9 -10 20 0 11 5 20 10 20 6 0 10 -9 10 -20z"/>
<path d="M1343 4722 l-53 -3 0 -85 0 -84 125 0 125 0 0 91 0 90 -72 -3 c-40
-2 -97 -4 -125 -6z m103 -37 c10 -8 29 -15 40 -15 12 0 24 -7 28 -15 9 -24 -4
-45 -29 -45 -12 0 -28 -7 -35 -15 -7 -8 -23 -15 -35 -15 -12 0 -28 7 -35 15
-7 8 -23 15 -35 15 -13 0 -25 6 -28 13 -8 21 12 46 33 42 11 -2 20 0 20 4 0 7
36 29 51 30 3 1 14 -6 25 -14z"/>
<path d="M1407 4664 c4 -11 8 -13 11 -6 7 23 19 12 18 -18 -1 -31 -11 -39 -19
-17 -4 10 -6 10 -6 0 -2 -28 -21 -11 -22 20 0 31 -1 31 -11 9 -10 -19 -8 -27
10 -45 24 -23 45 -18 66 16 14 22 -3 51 -32 55 -17 3 -20 0 -15 -14z"/>
<path d="M1492 4640 c0 -14 2 -19 5 -12 2 6 2 18 0 25 -3 6 -5 1 -5 -13z"/>
<path d="M1769 4683 l-1 -48 -12 40 c-9 32 -17 41 -39 43 -26 3 -27 1 -27 -40
0 -80 11 -118 33 -118 17 0 19 5 14 40 -6 48 10 44 19 -5 5 -28 11 -35 30 -35
23 0 24 2 24 85 0 78 -2 85 -20 85 -17 0 -20 -7 -21 -47z"/>
<path d="M1846 4714 c-21 -20 -21 -102 0 -132 8 -12 26 -22 39 -22 39 0 55 25
55 85 0 60 -16 85 -55 85 -13 0 -31 -7 -39 -16z m54 -75 c0 -48 -12 -65 -24
-33 -8 21 -8 79 0 87 15 14 24 -7 24 -54z"/>
<path d="M1960 4650 c0 -80 0 -80 26 -80 23 0 26 3 22 30 -3 20 0 30 8 30 7 0
14 -12 16 -27 2 -20 9 -29 25 -31 21 -3 22 0 17 30 -4 18 -10 37 -15 42 -5 5
-4 15 2 23 6 7 8 24 5 38 -6 23 -11 25 -56 25 l-50 0 0 -80z m68 33 c-4 -22
-22 -20 -26 1 -2 10 3 16 13 16 10 0 15 -7 13 -17z"/>
<path d="M1560 4642 c0 -43 3 -81 6 -84 13 -14 43 6 47 31 l3 26 12 -27 c8
-20 19 -28 37 -28 l25 0 -22 45 c-21 43 -21 46 -5 80 17 35 17 35 -7 35 -17 0
-27 -8 -34 -27 l-10 -28 -1 28 c-1 22 -6 27 -26 27 -25 0 -25 -1 -25 -78z"/>
<path d="M2253 4662 c-50 -5 -44 -32 7 -32 22 0 40 3 40 8 -1 18 -18 27 -47
24z"/>
<path d="M4112 4924 c-25 -17 -29 -60 -8 -89 19 -27 74 -24 98 4 23 30 23 42
-3 75 -23 29 -54 33 -87 10z"/>
<path d="M7797 4804 c-16 -16 -5 -24 34 -24 28 0 39 4 37 13 -5 13 -60 22 -71
11z"/>
<path d="M7965 4630 c3 -5 8 -10 11 -10 2 0 4 5 4 10 0 6 -5 10 -11 10 -5 0
-7 -4 -4 -10z"/>
<path d="M3426 4433 c-11 -11 -6 -23 9 -23 8 0 15 4 15 9 0 13 -16 22 -24 14z"/>
<path d="M3480 4395 c0 -8 7 -15 15 -15 8 0 15 7 15 15 0 8 -7 15 -15 15 -8 0
-15 -7 -15 -15z"/>
<path d="M3440 4374 c0 -9 5 -14 12 -12 18 6 21 28 4 28 -9 0 -16 -7 -16 -16z"/>
<path d="M3395 4371 c-7 -12 12 -24 25 -16 11 7 4 25 -10 25 -5 0 -11 -4 -15
-9z"/>
<path d="M3542 4369 c2 -6 8 -10 13 -10 5 0 11 4 13 10 2 6 -4 11 -13 11 -9 0
-15 -5 -13 -11z"/>
<path d="M3500 4356 c0 -9 7 -16 16 -16 9 0 14 5 12 12 -6 18 -28 21 -28 4z"/>
<path d="M3455 4341 c-7 -12 12 -24 25 -16 11 7 4 25 -10 25 -5 0 -11 -4 -15
-9z"/>
<path d="M3415 4330 c-4 -6 -3 -16 3 -22 6 -6 12 -6 17 2 4 6 3 16 -3 22 -6 6
-12 6 -17 -2z"/>
<path d="M3515 4320 c-4 -6 -3 -16 3 -22 6 -6 12 -6 17 2 4 6 3 16 -3 22 -6 6
-12 6 -17 -2z"/>
<path d="M3370 4306 c0 -9 7 -16 16 -16 9 0 14 5 12 12 -6 18 -28 21 -28 4z"/>
<path d="M3470 4296 c0 -9 7 -16 16 -16 9 0 14 5 12 12 -6 18 -28 21 -28 4z"/>
<path d="M3430 4274 c0 -9 5 -14 12 -12 18 6 21 28 4 28 -9 0 -16 -7 -16 -16z"/>
<path d="M3485 4261 c-7 -12 12 -24 25 -16 11 7 4 25 -10 25 -5 0 -11 -4 -15
-9z"/>
<path d="M6680 4320 c0 -37 2 -41 23 -38 18 2 22 9 22 38 0 29 -4 36 -22 38
-21 3 -23 -1 -23 -38z"/>
<path d="M8925 4328 c-7 -35 -25 -151 -25 -169 0 -13 19 -19 88 -28 48 -7 92
-12 97 -12 9 0 47 191 40 199 -3 3 -166 32 -182 32 -7 0 -15 -10 -18 -22z m33
-56 c-4 -14 1 -18 20 -17 14 0 27 5 29 12 3 9 19 11 51 6 26 -3 48 -7 50 -9 2
-1 -4 -14 -14 -29 -12 -18 -23 -25 -36 -22 -15 4 -17 3 -8 -8 18 -22 -5 -27
-71 -14 -60 12 -61 12 -55 42 3 16 6 36 6 43 0 8 7 14 16 14 11 0 15 -6 12
-18z"/>
<path d="M3780 4330 c0 -5 5 -10 10 -10 6 0 10 5 10 10 0 6 -4 10 -10 10 -5 0
-10 -4 -10 -10z"/>
<path d="M8143 4283 c9 -2 15 -9 11 -14 -3 -5 -10 -7 -15 -4 -5 4 -9 1 -9 -4
0 -6 9 -11 20 -11 13 0 20 7 20 20 0 14 -6 20 -22 19 -18 -1 -19 -2 -5 -6z"/>
<path d="M8190 4271 c0 -12 6 -21 16 -21 9 0 14 7 12 17 -5 25 -28 28 -28 4z"/>
<path d="M8285 4270 c17 -7 17 -9 3 -9 -34 -2 -18 -21 17 -21 l35 0 -20 20
c-11 11 -28 20 -37 19 -15 0 -15 -2 2 -9z"/>
<path d="M2290 4155 c0 -8 4 -15 10 -15 5 0 7 7 4 15 -4 8 -8 15 -10 15 -2 0
-4 -7 -4 -15z"/>
<path d="M2920 4165 c0 -9 6 -12 15 -9 8 4 15 10 15 15 0 5 -7 9 -15 9 -8 0
-15 -7 -15 -15z"/>
<path d="M9163 4175 c0 -8 4 -15 9 -15 4 0 8 7 8 15 0 8 -4 15 -8 15 -5 0 -9
-7 -9 -15z"/>
<path d="M9234 4171 c4 -5 1 -12 -4 -14 -6 -3 -5 -4 2 -3 15 3 23 26 8 26 -6
0 -9 -4 -6 -9z"/>
<path d="M1472 3948 c3 -20 9 -23 43 -23 34 0 40 3 43 23 3 20 -1 22 -43 22
-42 0 -46 -2 -43 -22z"/>
<path d="M1180 3930 c0 -5 20 -10 45 -10 25 0 45 5 45 10 0 6 -20 10 -45 10
-25 0 -45 -4 -45 -10z"/>
<path d="M5470 3763 c0 -10 3 -35 7 -56 5 -31 10 -37 26 -35 11 2 29 15 40 30
19 25 19 28 3 52 -20 32 -76 38 -76 9z"/>
<path d="M9374 3565 c-7 -18 3 -35 22 -35 8 0 14 10 14 25 0 27 -27 35 -36 10z"/>
<path d="M4455 3370 c4 -6 11 -8 16 -5 14 9 11 15 -7 15 -8 0 -12 -5 -9 -10z"/>
<path d="M4430 3350 c0 -5 5 -10 11 -10 5 0 7 5 4 10 -3 6 -8 10 -11 10 -2 0
-4 -4 -4 -10z"/>
<path d="M4480 3350 c0 -5 5 -10 10 -10 6 0 10 5 10 10 0 6 -4 10 -10 10 -5 0
-10 -4 -10 -10z"/>
<path d="M4455 3331 c-3 -5 -1 -12 5 -16 5 -3 10 1 10 9 0 18 -6 21 -15 7z"/>
<path d="M4610 3270 c0 -5 5 -10 10 -10 6 0 10 5 10 10 0 6 -4 10 -10 10 -5 0
-10 -4 -10 -10z"/>
<path d="M3780 3179 c0 -24 23 -21 28 4 2 10 -3 17 -12 17 -10 0 -16 -9 -16
-21z"/>
<path d="M3990 3185 c0 -8 7 -15 15 -15 8 0 15 7 15 15 0 8 -7 15 -15 15 -8 0
-15 -7 -15 -15z"/>
<path d="M3990 3130 c0 -22 1 -23 24 -14 23 9 20 34 -4 34 -13 0 -20 -7 -20
-20z"/>
<path d="M4177 3170 c-3 -13 0 -20 9 -20 15 0 19 26 5 34 -5 3 -11 -3 -14 -14z"/>
<path d="M4270 3190 c0 -13 5 -20 13 -17 6 2 12 10 12 17 0 7 -6 15 -12 18 -8
2 -13 -5 -13 -18z"/>
<path d="M6577 3100 c7 -26 15 -31 32 -20 19 11 6 40 -18 40 -14 0 -18 -5 -14
-20z"/>
<path d="M3265 3010 c-3 -5 1 -10 10 -10 9 0 13 5 10 10 -3 6 -8 10 -10 10 -2
0 -7 -4 -10 -10z"/>
<path d="M10520 2915 c-6 -8 -22 -17 -33 -21 -12 -4 -36 -18 -53 -33 -17 -14
-39 -31 -50 -38 -18 -11 -18 -12 2 -12 12 -1 27 6 35 15 7 8 21 13 31 11 10
-3 18 -2 18 2 0 4 6 16 14 26 13 18 14 17 29 -11 14 -27 16 -27 23 -9 16 45
24 46 67 10 42 -36 57 -43 57 -25 0 6 -5 10 -10 10 -6 0 -33 20 -59 45 -26 25
-50 45 -53 45 -3 0 -11 -7 -18 -15z"/>
<path d="M10364 2785 c-8 -20 4 -35 27 -35 12 0 19 -5 16 -12 -2 -7 -14 -13
-26 -12 -11 0 -21 -3 -21 -8 0 -9 22 -11 44 -2 24 9 19 33 -9 44 -31 12 -32
27 -2 33 l22 4 -23 2 c-12 0 -25 -6 -28 -14z"/>
<path d="M10470 2771 c0 -5 5 -13 10 -16 6 -3 10 -2 10 4 0 5 -4 13 -10 16 -5
3 -10 2 -10 -4z"/>
<path d="M10542 2750 c0 -19 2 -27 5 -17 2 9 2 25 0 35 -3 9 -5 1 -5 -18z"/>
<path d="M10570 2766 c0 -7 9 -16 20 -19 11 -3 20 -4 20 -3 0 1 -9 9 -20 19
-15 13 -20 14 -20 3z"/>
<path d="M10630 2773 c0 -14 39 -38 47 -29 3 3 -3 9 -13 13 -10 3 -22 11 -26
17 -5 8 -8 7 -8 -1z"/>
<path d="M10441 2760 c-1 -23 15 -45 23 -31 4 6 3 11 -3 11 -5 0 -12 8 -14 18
-3 12 -5 13 -6 2z"/>
<path d="M10490 2730 c0 -5 5 -10 10 -10 6 0 10 5 10 10 0 6 -4 10 -10 10 -5
0 -10 -4 -10 -10z"/>
<path d="M10578 2723 c7 -3 16 -2 19 1 4 3 -2 6 -13 5 -11 0 -14 -3 -6 -6z"/>
<path d="M10638 2723 c7 -3 16 -2 19 1 4 3 -2 6 -13 5 -11 0 -14 -3 -6 -6z"/>
<path d="M10281 2643 c1 -27 4 -38 6 -26 2 12 12 24 21 26 15 4 15 5 0 6 -26
2 -22 29 5 34 19 4 18 4 -5 6 -27 1 -28 -1 -27 -46z"/>
<path d="M10730 2674 c0 -8 5 -12 10 -9 6 4 8 11 5 16 -9 14 -15 11 -15 -7z"/>
<path d="M10622 2674 c9 -3 19 -16 21 -30 4 -21 4 -21 3 3 -1 20 -7 28 -21 30
-14 1 -15 0 -3 -3z"/>
<path d="M10675 2670 c-8 -14 3 -30 21 -30 9 0 12 -5 8 -12 -5 -7 -3 -8 6 -3
10 6 7 12 -10 25 -22 17 -23 18 -4 23 15 4 16 5 2 6 -9 0 -20 -3 -23 -9z"/>
<path d="M10347 2663 c-12 -11 -7 -40 9 -53 21 -18 49 9 39 39 -6 20 -34 28
-48 14z m38 -28 c0 -28 -29 -25 -33 3 -3 19 0 23 15 20 10 -2 18 -12 18 -23z"/>
<path d="M10422 2640 c0 -19 2 -27 5 -17 2 9 2 25 0 35 -3 9 -5 1 -5 -18z"/>
<path d="M10477 2663 c-4 -3 -7 -17 -7 -30 0 -19 5 -23 28 -22 23 2 24 2 5 6
-28 5 -30 23 -3 23 11 0 20 7 20 15 0 8 -5 15 -11 15 -5 0 -7 -4 -4 -10 3 -5
-1 -10 -10 -10 -9 0 -13 5 -10 10 7 11 2 13 -8 3z"/>
<path d="M10544 2640 c1 -16 7 -25 19 -26 11 -1 12 0 3 3 -8 2 -17 14 -19 26
-3 18 -4 18 -3 -3z"/>
<path d="M10605 2640 c-8 -13 3 -30 18 -30 8 0 7 3 -2 9 -7 5 -10 14 -7 20 4
6 5 11 2 11 -3 0 -8 -4 -11 -10z"/>
<path d="M6632 2728 c2 -12 10 -23 18 -23 22 0 19 39 -3 43 -15 3 -18 -1 -15
-20z"/>
<path d="M1960 2560 c-14 -34 -9 -46 15 -37 16 7 22 67 6 67 -5 0 -14 -14 -21
-30z"/>
<path d="M2152 2565 c-16 -34 -15 -45 3 -45 10 0 15 11 15 35 0 42 -3 43 -18
10z"/>
<path d="M1121 2580 c-9 -28 -8 -30 13 -30 27 0 46 18 46 42 0 12 -8 18 -24
18 -18 0 -27 -8 -35 -30z"/>
<path d="M9130 2285 c0 -8 5 -15 10 -15 6 0 10 7 10 15 0 8 -4 15 -10 15 -5 0
-10 -7 -10 -15z"/>
</g>
</svg>
